<svg xmlns="http://www.w3.org/2000/svg" viewBox="0 0 1600 1000" width="1600" height="1000"><rect width="1600" height="1000" fill="#DCE8E8"/><rect width="1600" height="260" fill="#C9DCDD" opacity=".6"/><circle cx="180" cy="420" r="120" fill="#9DB7A8" opacity=".7"/><circle cx="1450" cy="400" r="140" fill="#9DB7A8" opacity=".7"/><circle cx="1300" cy="450" r="90" fill="#9DB7A8" opacity=".7"/><rect y="760" width="1600" height="240" fill="#B9C6BF"/><polygon points="900,760 1240,760 1460,1000 980,1000" fill="#C8C3BA"/><rect x="300" y="760" width="560" height="60" fill="#7FA286"/><rect x="300" y="742" width="560" height="26" rx="13" fill="#5F8A6A"/><rect x="0" y="380" width="300" height="380" fill="#B9A49C"/><line x1="0" y1="396" x2="300" y2="396" stroke="#A5908A" stroke-width="1.2" opacity=".55"/><line x1="0" y1="412" x2="300" y2="412" stroke="#A5908A" stroke-width="1.2" opacity=".55"/><line x1="0" y1="428" x2="300" y2="428" stroke="#A5908A" stroke-width="1.2" opacity=".55"/><line x1="0" y1="444" x2="300" y2="444" stroke="#A5908A" stroke-width="1.2" opacity=".55"/><line x1="0" y1="460" x2="300" y2="460" stroke="#A5908A" stroke-width="1.2" opacity=".55"/><line x1="0" y1="476" x2="300" y2="476" stroke="#A5908A" stroke-width="1.2" opacity=".55"/><line x1="0" y1="492" x2="300" y2="492" stroke="#A5908A" stroke-width="1.2" opacity=".55"/><line x1="0" y1="508" x2="300" y2="508" stroke="#A5908A" stroke-width="1.2" opacity=".55"/><line x1="0" y1="524" x2="300" y2="524" stroke="#A5908A" stroke-width="1.2" opacity=".55"/><line x1="0" y1="540" x2="300" y2="540" stroke="#A5908A" stroke-width="1.2" opacity=".55"/><line x1="0" y1="556" x2="300" y2="556" stroke="#A5908A" stroke-width="1.2" opacity=".55"/><line x1="0" y1="572" x2="300" y2="572" stroke="#A5908A" stroke-width="1.2" opacity=".55"/><line x1="0" y1="588" x2="300" y2="588" stroke="#A5908A" stroke-width="1.2" opacity=".55"/><line x1="0" y1="604" x2="300" y2="604" stroke="#A5908A" stroke-width="1.2" opacity=".55"/><line x1="0" y1="620" x2="300" y2="620" stroke="#A5908A" stroke-width="1.2" opacity=".55"/><line x1="0" y1="636" x2="300" y2="636" stroke="#A5908A" stroke-width="1.2" opacity=".55"/><line x1="0" y1="652" x2="300" y2="652" stroke="#A5908A" stroke-width="1.2" opacity=".55"/><line x1="0" y1="668" x2="300" y2="668" stroke="#A5908A" stroke-width="1.2" opacity=".55"/><line x1="0" y1="684" x2="300" y2="684" stroke="#A5908A" stroke-width="1.2" opacity=".55"/><line x1="0" y1="700" x2="300" y2="700" stroke="#A5908A" stroke-width="1.2" opacity=".55"/><line x1="0" y1="716" x2="300" y2="716" stroke="#A5908A" stroke-width="1.2" opacity=".55"/><line x1="0" y1="732" x2="300" y2="732" stroke="#A5908A" stroke-width="1.2" opacity=".55"/><line x1="0" y1="748" x2="300" y2="748" stroke="#A5908A" stroke-width="1.2" opacity=".55"/><polygon points="0,380 300,380 300,230 0,230" fill="#5E6670"/><rect x="70" y="470" width="165" height="120" fill="#8A7562" rx="2"/><rect x="81" y="481" width="143" height="98" fill="#A9C3CC"/><rect x="147.0" y="470" width="11" height="120" fill="#8A7562"/><rect x="64" y="590" width="177" height="8" fill="#D9D4CC"/><rect x="1240" y="380" width="360" height="380" fill="#B9A49C"/><line x1="1240" y1="396" x2="1600" y2="396" stroke="#A5908A" stroke-width="1.2" opacity=".55"/><line x1="1240" y1="412" x2="1600" y2="412" stroke="#A5908A" stroke-width="1.2" opacity=".55"/><line x1="1240" y1="428" x2="1600" y2="428" stroke="#A5908A" stroke-width="1.2" opacity=".55"/><line x1="1240" y1="444" x2="1600" y2="444" stroke="#A5908A" stroke-width="1.2" opacity=".55"/><line x1="1240" y1="460" x2="1600" y2="460" stroke="#A5908A" stroke-width="1.2" opacity=".55"/><line x1="1240" y1="476" x2="1600" y2="476" stroke="#A5908A" stroke-width="1.2" opacity=".55"/><line x1="1240" y1="492" x2="1600" y2="492" stroke="#A5908A" stroke-width="1.2" opacity=".55"/><line x1="1240" y1="508" x2="1600" y2="508" stroke="#A5908A" stroke-width="1.2" opacity=".55"/><line x1="1240" y1="524" x2="1600" y2="524" stroke="#A5908A" stroke-width="1.2" opacity=".55"/><line x1="1240" y1="540" x2="1600" y2="540" stroke="#A5908A" stroke-width="1.2" opacity=".55"/><line x1="1240" y1="556" x2="1600" y2="556" stroke="#A5908A" stroke-width="1.2" opacity=".55"/><line x1="1240" y1="572" x2="1600" y2="572" stroke="#A5908A" stroke-width="1.2" opacity=".55"/><line x1="1240" y1="588" x2="1600" y2="588" stroke="#A5908A" stroke-width="1.2" opacity=".55"/><line x1="1240" y1="604" x2="1600" y2="604" stroke="#A5908A" stroke-width="1.2" opacity=".55"/><line x1="1240" y1="620" x2="1600" y2="620" stroke="#A5908A" stroke-width="1.2" opacity=".55"/><line x1="1240" y1="636" x2="1600" y2="636" stroke="#A5908A" stroke-width="1.2" opacity=".55"/><line x1="1240" y1="652" x2="1600" y2="652" stroke="#A5908A" stroke-width="1.2" opacity=".55"/><line x1="1240" y1="668" x2="1600" y2="668" stroke="#A5908A" stroke-width="1.2" opacity=".55"/><line x1="1240" y1="684" x2="1600" y2="684" stroke="#A5908A" stroke-width="1.2" opacity=".55"/><line x1="1240" y1="700" x2="1600" y2="700" stroke="#A5908A" stroke-width="1.2" opacity=".55"/><line x1="1240" y1="716" x2="1600" y2="716" stroke="#A5908A" stroke-width="1.2" opacity=".55"/><line x1="1240" y1="732" x2="1600" y2="732" stroke="#A5908A" stroke-width="1.2" opacity=".55"/><line x1="1240" y1="748" x2="1600" y2="748" stroke="#A5908A" stroke-width="1.2" opacity=".55"/><polygon points="1240,380 1600,380 1600,230 1240,230" fill="#5E6670"/><rect x="1330" y="470" width="165" height="120" fill="#8A7562" rx="2"/><rect x="1341" y="481" width="143" height="98" fill="#A9C3CC"/><rect x="1407.0" y="470" width="11" height="120" fill="#8A7562"/><rect x="1324" y="590" width="177" height="8" fill="#D9D4CC"/><rect x="900" y="520" width="340" height="16" fill="#E9ECEB"/><rect x="1210" y="536" width="16" height="224" fill="#E9ECEB"/><rect x="300" y="380" width="600" height="380" fill="#8E4F3E"/><line x1="300" y1="396" x2="900" y2="396" stroke="#A9685A" stroke-width="1.2" opacity=".55"/><line x1="300" y1="412" x2="900" y2="412" stroke="#A9685A" stroke-width="1.2" opacity=".55"/><line x1="300" y1="428" x2="900" y2="428" stroke="#A9685A" stroke-width="1.2" opacity=".55"/><line x1="300" y1="444" x2="900" y2="444" stroke="#A9685A" stroke-width="1.2" opacity=".55"/><line x1="300" y1="460" x2="900" y2="460" stroke="#A9685A" stroke-width="1.2" opacity=".55"/><line x1="300" y1="476" x2="900" y2="476" stroke="#A9685A" stroke-width="1.2" opacity=".55"/><line x1="300" y1="492" x2="900" y2="492" stroke="#A9685A" stroke-width="1.2" opacity=".55"/><line x1="300" y1="508" x2="900" y2="508" stroke="#A9685A" stroke-width="1.2" opacity=".55"/><line x1="300" y1="524" x2="900" y2="524" stroke="#A9685A" stroke-width="1.2" opacity=".55"/><line x1="300" y1="540" x2="900" y2="540" stroke="#A9685A" stroke-width="1.2" opacity=".55"/><line x1="300" y1="556" x2="900" y2="556" stroke="#A9685A" stroke-width="1.2" opacity=".55"/><line x1="300" y1="572" x2="900" y2="572" stroke="#A9685A" stroke-width="1.2" opacity=".55"/><line x1="300" y1="588" x2="900" y2="588" stroke="#A9685A" stroke-width="1.2" opacity=".55"/><line x1="300" y1="604" x2="900" y2="604" stroke="#A9685A" stroke-width="1.2" opacity=".55"/><line x1="300" y1="620" x2="900" y2="620" stroke="#A9685A" stroke-width="1.2" opacity=".55"/><line x1="300" y1="636" x2="900" y2="636" stroke="#A9685A" stroke-width="1.2" opacity=".55"/><line x1="300" y1="652" x2="900" y2="652" stroke="#A9685A" stroke-width="1.2" opacity=".55"/><line x1="300" y1="668" x2="900" y2="668" stroke="#A9685A" stroke-width="1.2" opacity=".55"/><line x1="300" y1="684" x2="900" y2="684" stroke="#A9685A" stroke-width="1.2" opacity=".55"/><line x1="300" y1="700" x2="900" y2="700" stroke="#A9685A" stroke-width="1.2" opacity=".55"/><line x1="300" y1="716" x2="900" y2="716" stroke="#A9685A" stroke-width="1.2" opacity=".55"/><line x1="300" y1="732" x2="900" y2="732" stroke="#A9685A" stroke-width="1.2" opacity=".55"/><line x1="300" y1="748" x2="900" y2="748" stroke="#A9685A" stroke-width="1.2" opacity=".55"/><rect x="300" y="560" width="600" height="10" fill="#7A4334"/><polygon points="290,382 910,382 860,200 340,200" fill="#3B4149"/><line x1="333.68131868131866" y1="223" x2="866.3186813186813" y2="223" stroke="#2E3339" stroke-width="2"/><line x1="327.3626373626374" y1="246" x2="872.6373626373627" y2="246" stroke="#2E3339" stroke-width="2"/><line x1="321.04395604395603" y1="269" x2="878.9560439560439" y2="269" stroke="#2E3339" stroke-width="2"/><line x1="314.72527472527474" y1="292" x2="885.2747252747253" y2="292" stroke="#2E3339" stroke-width="2"/><line x1="308.4065934065934" y1="315" x2="891.5934065934066" y2="315" stroke="#2E3339" stroke-width="2"/><line x1="302.08791208791206" y1="338" x2="897.9120879120879" y2="338" stroke="#2E3339" stroke-width="2"/><line x1="295.7692307692308" y1="361" x2="904.2307692307693" y2="361" stroke="#2E3339" stroke-width="2"/><rect x="280" y="376" width="640" height="12" fill="#E6E6E2"/><rect x="372" y="222" width="84" height="62" rx="3" fill="#15191E" stroke="#3E4650" stroke-width="2"/><line x1="414" y1="222" x2="414" y2="284" stroke="#2A3038" stroke-width="1.5"/><line x1="372" y1="253" x2="456" y2="253" stroke="#2A3038" stroke-width="1.5"/><rect x="464" y="222" width="84" height="62" rx="3" fill="#15191E" stroke="#3E4650" stroke-width="2"/><line x1="506" y1="222" x2="506" y2="284" stroke="#2A3038" stroke-width="1.5"/><line x1="464" y1="253" x2="548" y2="253" stroke="#2A3038" stroke-width="1.5"/><rect x="556" y="222" width="84" height="62" rx="3" fill="#15191E" stroke="#3E4650" stroke-width="2"/><line x1="598" y1="222" x2="598" y2="284" stroke="#2A3038" stroke-width="1.5"/><line x1="556" y1="253" x2="640" y2="253" stroke="#2A3038" stroke-width="1.5"/><rect x="648" y="222" width="84" height="62" rx="3" fill="#15191E" stroke="#3E4650" stroke-width="2"/><line x1="690" y1="222" x2="690" y2="284" stroke="#2A3038" stroke-width="1.5"/><line x1="648" y1="253" x2="732" y2="253" stroke="#2A3038" stroke-width="1.5"/><rect x="740" y="222" width="84" height="62" rx="3" fill="#15191E" stroke="#3E4650" stroke-width="2"/><line x1="782" y1="222" x2="782" y2="284" stroke="#2A3038" stroke-width="1.5"/><line x1="740" y1="253" x2="824" y2="253" stroke="#2A3038" stroke-width="1.5"/><rect x="360" y="294" width="84" height="62" rx="3" fill="#15191E" stroke="#3E4650" stroke-width="2"/><line x1="402" y1="294" x2="402" y2="356" stroke="#2A3038" stroke-width="1.5"/><line x1="360" y1="325" x2="444" y2="325" stroke="#2A3038" stroke-width="1.5"/><rect x="452" y="294" width="84" height="62" rx="3" fill="#15191E" stroke="#3E4650" stroke-width="2"/><line x1="494" y1="294" x2="494" y2="356" stroke="#2A3038" stroke-width="1.5"/><line x1="452" y1="325" x2="536" y2="325" stroke="#2A3038" stroke-width="1.5"/><rect x="544" y="294" width="84" height="62" rx="3" fill="#15191E" stroke="#3E4650" stroke-width="2"/><line x1="586" y1="294" x2="586" y2="356" stroke="#2A3038" stroke-width="1.5"/><line x1="544" y1="325" x2="628" y2="325" stroke="#2A3038" stroke-width="1.5"/><rect x="636" y="294" width="84" height="62" rx="3" fill="#15191E" stroke="#3E4650" stroke-width="2"/><line x1="678" y1="294" x2="678" y2="356" stroke="#2A3038" stroke-width="1.5"/><line x1="636" y1="325" x2="720" y2="325" stroke="#2A3038" stroke-width="1.5"/><rect x="728" y="294" width="84" height="62" rx="3" fill="#15191E" stroke="#3E4650" stroke-width="2"/><line x1="770" y1="294" x2="770" y2="356" stroke="#2A3038" stroke-width="1.5"/><line x1="728" y1="325" x2="812" y2="325" stroke="#2A3038" stroke-width="1.5"/><rect x="350" y="415" width="230" height="120" fill="#FFFFFF" rx="2"/><rect x="357" y="422" width="216" height="106" fill="#A9C3CC"/><rect x="357" y="459.1" width="216" height="68.9" fill="#F3C979" opacity=".75"/><rect x="461.5" y="415" width="7" height="120" fill="#FFFFFF"/><line x1="365" y1="518" x2="443.4" y2="432" stroke="#FFFFFF" stroke-width="3" opacity=".5"/><rect x="344" y="535" width="242" height="8" fill="#D9D4CC"/><rect x="620" y="415" width="230" height="120" fill="#FFFFFF" rx="2"/><rect x="627" y="422" width="216" height="106" fill="#A9C3CC"/><rect x="627" y="459.1" width="216" height="68.9" fill="#F3C979" opacity=".75"/><rect x="731.5" y="415" width="7" height="120" fill="#FFFFFF"/><line x1="635" y1="518" x2="713.4" y2="432" stroke="#FFFFFF" stroke-width="3" opacity=".5"/><rect x="614" y="535" width="242" height="8" fill="#D9D4CC"/><rect x="520" y="610" width="330" height="130" fill="#FFFFFF" rx="2"/><rect x="527" y="617" width="316" height="116" fill="#A9C3CC"/><rect x="527" y="657.6" width="316" height="75.4" fill="#F3C979" opacity=".75"/><rect x="681.5" y="610" width="7" height="130" fill="#FFFFFF"/><line x1="535" y1="723" x2="653.4" y2="627" stroke="#FFFFFF" stroke-width="3" opacity=".5"/><rect x="514" y="740" width="342" height="8" fill="#D9D4CC"/><rect x="360" y="600" width="110" height="160" fill="#FFFFFF"/><rect x="372" y="612" width="86" height="148" fill="#0A2A5E"/><rect x="388" y="630" width="54" height="40" fill="#F3C979" opacity=".8"/><circle cx="446" cy="700" r="4" fill="#D9D4CC"/><rect x="355" y="760" width="120" height="10" fill="#9C9C96"/><rect x="920" y="590" width="70" height="110" rx="8" fill="#FAFAF8" stroke="#C9CFCD" stroke-width="2"/><rect x="946" y="606" width="18" height="6" rx="3" fill="#1F7A63"/><rect x="1090" y="600" width="104" height="72" rx="6" fill="#F2F3F1" stroke="#C3C9C7" stroke-width="2"/><circle cx="1120" cy="636" r="24" fill="#DDE2E0" stroke="#AEB6B3" stroke-width="2"/><line x1="1152" y1="614" x2="1184" y2="614" stroke="#AEB6B3" stroke-width="2"/><line x1="1152" y1="625" x2="1184" y2="625" stroke="#AEB6B3" stroke-width="2"/><line x1="1152" y1="636" x2="1184" y2="636" stroke="#AEB6B3" stroke-width="2"/><line x1="1152" y1="647" x2="1184" y2="647" stroke="#AEB6B3" stroke-width="2"/><line x1="1152" y1="658" x2="1184" y2="658" stroke="#AEB6B3" stroke-width="2"/><line x1="1092" y1="672" x2="1092" y2="690" stroke="#8D9592" stroke-width="4"/><line x1="1192" y1="672" x2="1192" y2="690" stroke="#8D9592" stroke-width="4"/><rect x="488" y="630" width="26" height="54" rx="6" fill="#FAFAF8" stroke="#C9CFCD" stroke-width="2"/><circle cx="501" cy="648" r="5" fill="#1F7A63"/><path d="M501 684 C 520 780, 700 820, 905 830" fill="none" stroke="#2E3339" stroke-width="5"/><path d="M930 900 L930 840 Q940 800 990 790 L1060 760 Q1100 748 1160 748 L1230 748 Q1280 750 1300 790 L1330 840 L1330 900 Z" fill="#3E5F7A"/><path d="M1010 788 L1068 764 Q1100 756 1150 756 L1150 790 Z" fill="#A9C3CC"/><path d="M1162 756 L1228 756 Q1262 760 1278 790 L1162 790 Z" fill="#A9C3CC"/><circle cx="1010" cy="905" r="38" fill="#1E2328"/><circle cx="1010" cy="905" r="16" fill="#9AA3A8"/><circle cx="1250" cy="905" r="38" fill="#1E2328"/><circle cx="1250" cy="905" r="16" fill="#9AA3A8"/></svg>